<svg width="30" height="30" viewBox="0 0 30 30" fill="none" xmlns="http://www.w3.org/2000/svg">
    <path d="M5 14.657C5 14.1824 5.35269 13.7901 5.81029 13.7281L5.9375 13.7195L22.4175 13.7202L16.4638 7.79084C16.0969 7.42551 16.0956 6.83192 16.4609 6.46502C16.793 6.13147 17.3138 6.10009 17.6814 6.37161L17.7867 6.46216L25.3492 13.9922C25.3976 14.0403 25.4396 14.0924 25.4753 14.1475C25.4853 14.164 25.4956 14.181 25.5053 14.1983C25.5142 14.2131 25.5223 14.2285 25.5299 14.244C25.5405 14.2667 25.5509 14.2901 25.5602 14.3139C25.5679 14.3323 25.5742 14.3502 25.5801 14.3683C25.587 14.3906 25.5937 14.4145 25.5994 14.4387C25.6037 14.4556 25.6071 14.4718 25.6101 14.4881C25.6143 14.5124 25.6178 14.5376 25.6203 14.563C25.6225 14.5824 25.6238 14.6016 25.6246 14.6209C25.6248 14.6325 25.625 14.6447 25.625 14.657L25.6245 14.6933C25.6238 14.7117 25.6226 14.7301 25.6208 14.7484L25.625 14.657C25.625 14.7162 25.6195 14.774 25.609 14.8302C25.6066 14.8436 25.6037 14.8573 25.6005 14.871C25.5938 14.8992 25.5862 14.9264 25.5773 14.9531C25.5729 14.9663 25.5679 14.9804 25.5625 14.9945C25.5515 15.0227 25.5396 15.0496 25.5265 15.0758C25.5204 15.0881 25.5136 15.101 25.5065 15.1138C25.4947 15.1346 25.4827 15.1544 25.4699 15.1737C25.4609 15.1873 25.4509 15.2015 25.4405 15.2155L25.4324 15.2263C25.4072 15.2593 25.3797 15.2906 25.3504 15.3199L25.3493 15.3208L17.7868 22.852C17.4199 23.2174 16.8263 23.2162 16.461 22.8493C16.1288 22.5158 16.0996 21.9949 16.3727 21.6284L16.4637 21.5235L22.415 15.5952L5.9375 15.5945C5.41973 15.5945 5 15.1748 5 14.657Z" fill="url(#paint0_linear)"/>
    <defs>
        <linearGradient id="paint0_linear" x1="5" y1="14.6571" x2="25.625" y2="14.6571" gradientUnits="userSpaceOnUse">
            <stop stop-color="#EB6B5B"/>
            <stop offset="1" stop-color="#ECBAF6"/>
        </linearGradient>
    </defs>
</svg>
