<svg width="30" height="30" viewBox="0 0 30 30" fill="none" xmlns="http://www.w3.org/2000/svg">
    <path d="M15 1.12524C4.5945 1.12524 1.125 4.59474 1.125 15.0002C1.125 25.4057 4.5945 28.8752 15 28.8752C25.4055 28.8752 28.875 25.4057 28.875 15.0002" stroke="#1B3142" stroke-width="1.5" stroke-linecap="round" stroke-linejoin="round"/>
    <path fill-rule="evenodd" clip-rule="evenodd" d="M26.2921 3.4557C24.8026 2.1372 22.5271 2.2752 21.2086 3.7647C21.2086 3.7647 14.6551 11.1672 12.3826 13.7367C10.1071 16.3047 11.7751 19.8522 11.7751 19.8522C11.7751 19.8522 15.5311 21.0417 17.7721 18.5097C20.0146 15.9777 26.6011 8.5392 26.6011 8.5392C27.9196 7.0497 27.7801 4.7742 26.2921 3.4557Z" stroke="#1B3142" stroke-width="1.5" stroke-linecap="round" stroke-linejoin="round"/>
    <path d="M19.5127 5.70117L24.9052 10.4757" stroke="#1B3142" stroke-width="1.5" stroke-linecap="round" stroke-linejoin="round"/>
</svg>
