<svg width="36" height="36" viewBox="0 0 36 36" fill="none" xmlns="http://www.w3.org/2000/svg">
    <path d="M16.7155 26.8242H7.00671" stroke="#1B3142" stroke-width="1.5" stroke-linecap="round" stroke-linejoin="round"/>
    <path fill-rule="evenodd" clip-rule="evenodd" d="M22.8074 26.8256C22.8074 29.8883 23.8287 30.9083 26.8901 30.9083C29.9514 30.9083 30.9727 29.8883 30.9727 26.8256C30.9727 23.7629 29.9514 22.7429 26.8901 22.7429C23.8287 22.7429 22.8074 23.7629 22.8074 26.8256Z" stroke="#1B3142" stroke-width="1.5" stroke-linecap="round" stroke-linejoin="round"/>
    <path d="M21.2648 11.0913H30.9722" stroke="#1B3142" stroke-width="1.5" stroke-linecap="round" stroke-linejoin="round"/>
    <path fill-rule="evenodd" clip-rule="evenodd" d="M15.1728 11.0893C15.1728 8.02793 14.1515 7.00659 11.0901 7.00659C8.02745 7.00659 7.0061 8.02793 7.0061 11.0893C7.0061 14.152 8.02745 15.172 11.0901 15.172C14.1515 15.172 15.1728 14.152 15.1728 11.0893Z" stroke="#1B3142" stroke-width="1.5" stroke-linecap="round" stroke-linejoin="round"/>
</svg>
