<svg width="110" height="25" viewBox="0 0 110 25" fill="none" xmlns="http://www.w3.org/2000/svg">
    <g clip-path="url(#clip0)">
        <path d="M29.6209 21.6035C24.7521 21.6035 20.9329 18.3965 20.9329 13.0612C20.9329 7.69679 24.8104 4.51895 29.6209 4.51895C33.032 4.51895 34.8687 5.94752 35.306 6.38484L34.1107 9.59184C33.79 9.18368 32.0116 7.87172 29.825 7.87172C27.0262 7.87172 24.8687 9.73761 24.8687 12.9738C24.8687 16.2099 27.1136 18.0758 29.825 18.0758C31.895 18.0758 33.3818 17.2595 34.2856 16.3265L35.5684 19.3586C34.7521 20.2041 33.0028 21.6035 29.6209 21.6035Z" fill="#1B3142"/>
        <path d="M36.7346 21.3121V4.75232H40.583V21.3121H36.7346Z" fill="#1B3142"/>
        <path d="M50.3789 21.312L50.3497 19.9708C49.8541 20.6997 48.6005 21.5743 46.8803 21.5743C43.615 21.5743 42.6238 19.5918 42.6238 16.6181V9.47522H46.4722V16.0933C46.4722 17.4636 46.8512 18.3965 48.2214 18.3965C49.5917 18.3965 50.204 17.3178 50.204 15.7434V9.47522H54.0524V21.312H50.3789Z" fill="#1B3142"/>
        <path d="M63.79 21.5745C62.1865 21.5745 60.758 20.9914 59.8833 19.7377H59.8542L59.8833 21.2829H56.239V4.75232H60.0583V8.74649C60.0583 9.82521 59.9999 10.9331 59.9999 10.9331H60.0583C60.5539 10.2042 61.7492 9.27127 63.79 9.27127C67.2011 9.27127 69.3585 11.9243 69.3585 15.4229C69.3585 18.9214 67.2303 21.5745 63.79 21.5745ZM62.7113 12.2742C61.0495 12.2742 59.9416 13.5278 59.9416 15.3354C59.9416 17.1721 61.0787 18.3966 62.7113 18.3966C64.3731 18.3966 65.481 17.143 65.481 15.3354C65.4518 13.5278 64.3731 12.2742 62.7113 12.2742Z" fill="#1B3142"/>
        <path d="M76.2912 13.5466C77.4632 13.369 78.4637 12.9388 79.1807 12.2325C79.9312 11.4933 80.3622 10.4605 80.3622 9.1255C80.3622 7.70497 79.9249 6.58119 79.0527 5.81425C78.1826 5.04916 76.8945 4.65232 75.2184 4.65232H71.6033H71.5033V4.75232V21.3121V21.4121H71.6033H72.6528H72.7528V21.3121V13.5695H74.8428L79.7988 21.3657L79.8282 21.4121H79.8832H81.1951H81.3789L81.2791 21.2578L76.2912 13.5466ZM75.3059 5.81442C76.4448 5.81442 77.3882 6.06697 78.0453 6.60106C78.6988 7.13225 79.0834 7.95377 79.0834 9.1255C79.0834 10.4814 78.5866 11.2994 77.8111 11.7849C77.0266 12.2761 75.9422 12.4366 74.752 12.4366H72.7528V5.81442H75.3059Z" fill="#1B3142" stroke="#1B3142" stroke-width="0.2"/>
        <path d="M90.1042 19.8209V21.2829V21.3829H90.2042H91.2246H91.3246V21.2829V14.4316C91.3246 13.4627 91.2146 12.7787 91.0118 12.2493C90.8082 11.7177 90.5137 11.3487 90.1567 11.0066L90.1567 11.0066L90.1554 11.0053C89.3735 10.2836 88.4133 9.92924 86.7639 9.92924C86.0507 9.92924 85.3037 10.085 84.6588 10.2987C84.0152 10.5121 83.4646 10.786 83.1465 11.0284L83.0765 11.0817L83.1204 11.1579L83.5578 11.9159L83.6151 12.0154L83.7058 11.9449C83.762 11.9012 83.8937 11.8249 84.0889 11.7338C84.2817 11.6439 84.5305 11.5424 84.8167 11.447C85.3898 11.2559 86.1076 11.0913 86.8222 11.0913C87.8124 11.0913 88.6238 11.3425 89.1866 11.8423C89.7474 12.3405 90.075 13.0978 90.075 14.14V14.6843L87.1985 14.7689C87.1984 14.7689 87.1984 14.7689 87.1983 14.7689C85.5969 14.813 84.4145 15.1879 83.6303 15.7995C82.8428 16.4137 82.4657 17.2599 82.4657 18.2217C82.4657 20.1477 83.9733 21.6453 86.1517 21.6453C88.1929 21.6453 89.5413 20.4439 90.1042 19.8209ZM83.7444 18.28C83.7444 17.6197 83.9677 17.0392 84.5149 16.6132C85.0665 16.1838 85.9599 15.9017 87.3195 15.8727C87.3196 15.8727 87.3198 15.8727 87.32 15.8727L90.0459 15.8446V18.4839C89.774 18.9024 89.2677 19.4128 88.6305 19.8211C87.9813 20.2372 87.2055 20.5415 86.4141 20.5415C84.7115 20.5415 83.7444 19.4702 83.7444 18.28Z" fill="#1B3142" stroke="#1B3142" stroke-width="0.2"/>
        <path d="M94.1399 10.1623H94.0399V10.2623V21.3119V21.4119H94.1399H95.1311H95.2311V21.3119V15.0145C95.2311 13.3747 95.6612 12.6089 96.0267 12.131C96.2255 11.8754 96.841 11.2078 97.8134 11.2078C98.3286 11.2078 98.8146 11.2939 99.0966 11.3785L99.2083 11.412L99.2244 11.2965L99.3701 10.2469L99.3826 10.1569L99.2942 10.1359L99.2711 10.2332L99.2942 10.1359L99.2942 10.1359L99.294 10.1358L99.2936 10.1357L99.2921 10.1354L99.2864 10.1341L99.2649 10.1292C99.2462 10.1251 99.2189 10.1193 99.1841 10.1123C99.1145 10.0984 99.0145 10.0799 98.8925 10.0614C98.6488 10.0245 98.3155 9.9874 97.9591 9.9874C96.8466 9.9874 95.8369 10.5736 95.2311 11.7698V10.2623V10.1623H95.1311H94.1399Z" fill="#1B3142" stroke="#1B3142" stroke-width="0.2"/>
        <path d="M110.029 16.0768L110.041 15.99L109.942 15.9768L110.041 15.99L110.041 15.9899L110.041 15.9899L110.041 15.9896L110.041 15.9885L110.041 15.9846L110.043 15.9698L110.05 15.9146C110.056 15.8676 110.063 15.8012 110.07 15.7238C110.085 15.5696 110.1 15.3692 110.1 15.1896C110.1 13.6959 109.619 12.3803 108.743 11.4371C107.866 10.4931 106.6 9.92924 105.044 9.92924C102.039 9.92924 99.6375 12.3113 99.6375 15.7727C99.6375 17.469 100.154 18.9371 101.08 19.9826C102.008 21.0292 103.34 21.6453 104.956 21.6453C106.592 21.6453 107.761 21.225 108.515 20.8016C108.891 20.59 109.164 20.3778 109.341 20.217C109.429 20.1368 109.493 20.0687 109.535 20.0192C109.555 19.995 109.572 19.9731 109.583 19.9552C109.588 19.9479 109.596 19.9341 109.601 19.918L109.601 19.9178C109.603 19.9122 109.61 19.8882 109.603 19.859C109.599 19.846 109.592 19.831 109.58 19.8176L109.091 19.0984L109.022 18.9963L108.937 19.0853L108.937 19.0853L108.937 19.0854L108.937 19.0854L108.936 19.0859L108.933 19.0885L108.923 19.0994C108.913 19.1091 108.897 19.1238 108.877 19.1426C108.836 19.1802 108.775 19.2344 108.694 19.2999C108.531 19.4307 108.288 19.6059 107.969 19.7813C107.332 20.132 106.394 20.4832 105.189 20.4832C103.932 20.4832 102.895 20.0268 102.157 19.2393C101.438 18.4712 100.997 17.3815 100.921 16.0768H109.942H110.029ZM108.821 14.9438H100.923C101.058 13.1933 102.479 11.0913 104.956 11.0913C106.365 11.0913 107.336 11.7159 107.953 12.5208C108.545 13.2934 108.811 14.2323 108.821 14.9438Z" fill="#1B3142" stroke="#1B3142" stroke-width="0.2"/>
        <path d="M0 0V24.1108H12.4198V5.71429L2.79883 2.85714H14.9563V24.1399H17.551V0H0ZM10.4665 13.0321C10.8455 13.0321 11.1662 13.3528 11.1662 13.7318C11.1662 14.1108 10.8455 14.4315 10.4665 14.4315C10.0875 14.4315 9.76676 14.1108 9.76676 13.7318C9.76676 13.3528 10.0583 13.0321 10.4665 13.0321Z" fill="#1B3142"/>
    </g>
    <defs>
        <clipPath id="clip0">
            <rect width="110" height="24.1108" fill="white"/>
        </clipPath>
    </defs>
</svg>
