<svg width="21" height="22" viewBox="0 0 21 22" fill="none" xmlns="http://www.w3.org/2000/svg">
    <path d="M1.78906 10.5958C1.78906 13.6507 2.2887 15.9261 3.76682 17.4042C5.24493 18.8823 7.52031 19.382 10.5753 19.382C13.6302 19.382 15.9056 18.8823 17.3837 17.4042C18.8618 15.9261 19.3615 13.6507 19.3615 10.5958C19.3615 7.54082 18.8618 5.26544 17.3837 3.78732C15.9056 2.30921 13.6302 1.80957 10.5753 1.80957C7.52031 1.80957 5.24493 2.30921 3.76682 3.78732C2.2887 5.26544 1.78906 7.54082 1.78906 10.5958Z" fill="white" stroke="#377CF6" stroke-width="1.5" stroke-linecap="round" stroke-linejoin="round"/>
    <path fill-rule="evenodd" clip-rule="evenodd" d="M7.48242 10.5958L9.5449 12.6574L13.6681 8.53418" fill="white"/>
    <path d="M7.48242 10.5958L9.5449 12.6574L13.6681 8.53418" stroke="#377CF6" stroke-width="1.5" stroke-linecap="round" stroke-linejoin="round"/>
</svg>
