<svg width="18" height="16" viewBox="0 0 18 16" fill="none" xmlns="http://www.w3.org/2000/svg">
    <path d="M6.715 15.0005C5.937 15.0005 5.135 14.9365 4.33 14.8075C2.91 14.5805 1.473 13.8245 1.066 13.5975L0 13.0055L1.155 12.6195C2.417 12.1965 3.185 11.9345 4.135 11.5235C3.183 11.0545 2.45 10.2105 2.097 9.11949L1.828 8.28949L2.048 8.32349C1.86058 8.13057 1.69276 7.91954 1.547 7.69349C1.092 6.98949 0.85 6.12949 0.903 5.39349L0.953 4.66849L1.379 4.83649C1.19857 4.48974 1.06859 4.11899 0.993 3.73549C0.809945 2.77201 0.965007 1.77488 1.432 0.912488L1.803 0.218488L2.3 0.826488C3.87 2.74649 5.858 3.88649 8.219 4.21949C8.11825 3.57349 8.19213 2.91231 8.433 2.30449C8.72211 1.61012 9.22332 1.0249 9.865 0.632488C10.6123 0.170989 11.4845 -0.0470523 12.361 0.00848839C13.2721 0.0585263 14.1378 0.422472 14.811 1.03849C15.139 0.950488 15.381 0.858488 15.708 0.732488C15.905 0.657488 16.128 0.572488 16.407 0.474488L17.435 0.113488L16.765 2.06349L16.902 2.05349L18 2.00449L17.351 2.90749L17.291 2.99449C17.239 3.07449 17.174 3.17449 16.283 4.38549C16.0538 4.70949 15.9429 5.10245 15.969 5.49849C16.049 7.07249 15.859 8.49649 15.405 9.73049C14.9966 10.8677 14.3194 11.8894 13.431 12.7085C12.34 13.7085 10.949 14.3935 9.297 14.7435C8.487 14.9155 7.617 15.0015 6.715 15.0015V15.0005Z" fill="#1B3142"/>
</svg>
