<svg width="40" height="40" viewBox="0 0 40 40" fill="none" xmlns="http://www.w3.org/2000/svg">
    <path fill-rule="evenodd" clip-rule="evenodd" d="M19.7409 36.1032C13.5879 36.1032 8.33337 35.1457 8.33337 31.3111C8.33337 27.4764 13.5546 23.9365 19.7409 23.9365C25.894 23.9365 31.1485 27.4421 31.1485 31.2768C31.1485 35.1098 25.9273 36.1032 19.7409 36.1032Z" stroke="#818D97" stroke-width="1.5" stroke-linecap="round" stroke-linejoin="round"/>
    <path fill-rule="evenodd" clip-rule="evenodd" d="M19.7288 18.6227C23.7667 18.6227 27.0394 15.35 27.0394 11.3121C27.0394 7.27424 23.7667 4 19.7288 4C15.691 4 12.4167 7.27424 12.4167 11.3121C12.4031 15.3364 15.6531 18.6091 19.6773 18.6227C19.6955 18.6227 19.7122 18.6227 19.7288 18.6227Z" stroke="#818D97" stroke-width="1.5" stroke-linecap="round" stroke-linejoin="round"/>
</svg>
