<svg width="26" height="24" viewBox="0 0 26 24" fill="none" xmlns="http://www.w3.org/2000/svg">
    <path d="M24.4638 15.3444H19.6054C17.8364 15.3444 16.4019 13.9098 16.4019 12.1396C16.4019 10.3706 17.8364 8.93604 19.6054 8.93604H24.4257" stroke="url(#paint0_linear)" stroke-width="1.5" stroke-linecap="round" stroke-linejoin="round"/>
    <path d="M20.1527 12.0664H19.7812" stroke="url(#paint1_linear)" stroke-width="1.5" stroke-linecap="round" stroke-linejoin="round"/>
    <path d="M7.50781 7.17969H12.5828" stroke="url(#paint2_linear)" stroke-width="1.5" stroke-linecap="round" stroke-linejoin="round"/>
    <path fill-rule="evenodd" clip-rule="evenodd" d="M1.39258 12.3164C1.39258 4.31044 4.29853 1.64258 13.0188 1.64258C21.7378 1.64258 24.6438 4.31044 24.6438 12.3164C24.6438 20.3211 21.7378 22.9902 13.0188 22.9902C4.29853 22.9902 1.39258 20.3211 1.39258 12.3164Z" stroke="url(#paint3_linear)" stroke-width="1.5" stroke-linecap="round" stroke-linejoin="round"/>
    <defs>
        <linearGradient id="paint0_linear" x1="20.4328" y1="8.93604" x2="20.4328" y2="15.3444" gradientUnits="userSpaceOnUse">
            <stop stop-color="#EB6B5B"/>
            <stop offset="1" stop-color="#ECBAF6"/>
        </linearGradient>
        <linearGradient id="paint1_linear" x1="19.967" y1="12.0664" x2="19.967" y2="13.0664" gradientUnits="userSpaceOnUse">
            <stop stop-color="#EB6B5B"/>
            <stop offset="1" stop-color="#ECBAF6"/>
        </linearGradient>
        <linearGradient id="paint2_linear" x1="10.0453" y1="7.17969" x2="10.0453" y2="8.17969" gradientUnits="userSpaceOnUse">
            <stop stop-color="#EB6B5B"/>
            <stop offset="1" stop-color="#ECBAF6"/>
        </linearGradient>
        <linearGradient id="paint3_linear" x1="13.0182" y1="1.64258" x2="13.0182" y2="22.9902" gradientUnits="userSpaceOnUse">
            <stop stop-color="#EB6B5B"/>
            <stop offset="1" stop-color="#ECBAF6"/>
        </linearGradient>
    </defs>
</svg>
